<svg width="0" height="0" class="hidden">
    <symbol fill="current" xmlns="http://www.w3.org/2000/svg" viewBox="0 0 32 32" id="FaUsers">
        <g clip-path="url(#clip0_19_241)">
            <path
                d="M7.2 3.19995C8.26087 3.19995 9.27828 3.62138 10.0284 4.37152C10.7786 5.12167 11.2 6.13909 11.2 7.19995C11.2 8.26082 10.7786 9.27823 10.0284 10.0284C9.27828 10.7785 8.26087 11.2 7.2 11.2C6.13913 11.2 5.12172 10.7785 4.37157 10.0284C3.62143 9.27823 3.2 8.26082 3.2 7.19995C3.2 6.13909 3.62143 5.12167 4.37157 4.37152C5.12172 3.62138 6.13913 3.19995 7.2 3.19995ZM25.6 3.19995C26.6609 3.19995 27.6783 3.62138 28.4284 4.37152C29.1786 5.12167 29.6 6.13909 29.6 7.19995C29.6 8.26082 29.1786 9.27823 28.4284 10.0284C27.6783 10.7785 26.6609 11.2 25.6 11.2C24.5391 11.2 23.5217 10.7785 22.7716 10.0284C22.0214 9.27823 21.6 8.26082 21.6 7.19995C21.6 6.13909 22.0214 5.12167 22.7716 4.37152C23.5217 3.62138 24.5391 3.19995 25.6 3.19995ZM0 18.135C0 15.19 2.39 12.8 5.335 12.8H7.47C8.265 12.8 9.02 12.975 9.7 13.285C9.635 13.645 9.605 14.02 9.605 14.4C9.605 16.31 10.445 18.025 11.77 19.2C11.76 19.2 11.75 19.2 11.735 19.2H1.065C0.48 19.2 0 18.72 0 18.135ZM20.265 19.2C20.255 19.2 20.245 19.2 20.23 19.2C21.56 18.025 22.395 16.31 22.395 14.4C22.395 14.02 22.36 13.65 22.3 13.285C22.98 12.97 23.735 12.8 24.53 12.8H26.665C29.61 12.8 32 15.19 32 18.135C32 18.725 31.52 19.2 30.935 19.2H20.265ZM11.2 14.4C11.2 13.1269 11.7057 11.906 12.6059 11.0058C13.5061 10.1057 14.727 9.59995 16 9.59995C17.273 9.59995 18.4939 10.1057 19.3941 11.0058C20.2943 11.906 20.8 13.1269 20.8 14.4C20.8 15.673 20.2943 16.8939 19.3941 17.7941C18.4939 18.6942 17.273 19.2 16 19.2C14.727 19.2 13.5061 18.6942 12.6059 17.7941C11.7057 16.8939 11.2 15.673 11.2 14.4ZM6.4 27.465C6.4 23.785 9.385 20.8 13.065 20.8H18.935C22.615 20.8 25.6 23.785 25.6 27.465C25.6 28.2 25.005 28.8 24.265 28.8H7.735C7 28.8 6.4 28.205 6.4 27.465Z"
                fill="current"></path>
        </g>
        <defs>
            <clipPath id="clip0_19_241">
                <rect width="32" height="32" fill="current"></rect>
            </clipPath>
        </defs>
    </symbol>
    <symbol fill="current" xmlns="http://www.w3.org/2000/svg" viewBox="0 0 32 32" id="LuLayoutDashboard">
        <path
            d="M12 4H5.33333C4.59695 4 4 4.59695 4 5.33333V14.6667C4 15.403 4.59695 16 5.33333 16H12C12.7364 16 13.3333 15.403 13.3333 14.6667V5.33333C13.3333 4.59695 12.7364 4 12 4Z"
            stroke="current" stroke-width="2.66667" stroke-linecap="round" stroke-linejoin="round"></path>
        <path
            d="M26.6666 4H20C19.2636 4 18.6666 4.59695 18.6666 5.33333V9.33333C18.6666 10.0697 19.2636 10.6667 20 10.6667H26.6666C27.403 10.6667 28 10.0697 28 9.33333V5.33333C28 4.59695 27.403 4 26.6666 4Z"
            stroke="current" stroke-width="2.66667" stroke-linecap="round" stroke-linejoin="round"></path>
        <path
            d="M26.6666 16H20C19.2636 16 18.6666 16.597 18.6666 17.3333V26.6667C18.6666 27.403 19.2636 28 20 28H26.6666C27.403 28 28 27.403 28 26.6667V17.3333C28 16.597 27.403 16 26.6666 16Z"
            stroke="current" stroke-width="2.66667" stroke-linecap="round" stroke-linejoin="round"></path>
        <path
            d="M12 21.3334H5.33333C4.59695 21.3334 4 21.9303 4 22.6667V26.6667C4 27.4031 4.59695 28 5.33333 28H12C12.7364 28 13.3333 27.4031 13.3333 26.6667V22.6667C13.3333 21.9303 12.7364 21.3334 12 21.3334Z"
            stroke="current" stroke-width="2.66667" stroke-linecap="round" stroke-linejoin="round"></path>
    </symbol>
    <symbol fill="current" xmlns="http://www.w3.org/2000/svg" viewBox="0 0 32 32" id="BiSolidMessageDetail">
        <path
            d="M26.6666 2.66663H5.33329C3.86263 2.66663 2.66663 3.85863 2.66663 5.32263V21.344C2.66663 22.808 3.86263 24 5.33329 24H9.33329V29.3333L17.8013 24H26.6666C28.1373 24 29.3333 22.808 29.3333 21.344V5.32263C29.3312 4.61702 29.0492 3.94107 28.5493 3.44312C28.0493 2.94518 27.3722 2.66592 26.6666 2.66663ZM18.6666 17.3333H9.33329V14.6666H18.6666V17.3333ZM22.6666 12H9.33329V9.33329H22.6666V12Z"
            fill="current"></path>
    </symbol>
</svg>