<svg width="380" height="380" viewBox="0 0 380 380" fill="none" xmlns="http://www.w3.org/2000/svg">
<g clip-path="url(#clip0_1_2)">
<path d="M370 189.737C370 194.129 369.85 198.532 369.54 202.915C369.24 207.297 368.78 211.679 368.17 216.031C367.56 220.372 366.8 224.714 365.89 229.004C364.98 233.294 363.91 237.563 362.71 241.781C361.5 245.999 360.15 250.177 358.65 254.292C357.16 258.408 355.51 262.482 353.73 266.474C351.96 270.477 350.03 274.418 347.98 278.267C345.93 282.126 343.74 285.913 341.43 289.618C339.11 293.313 336.66 296.925 334.1 300.446C331.53 303.966 328.84 307.394 326.03 310.709C323.23 314.034 320.31 317.257 317.28 320.366C314.25 323.476 311.11 326.473 307.87 329.347C304.64 332.231 301.3 334.991 297.87 337.629C294.44 340.256 290.92 342.771 287.32 345.152C283.71 347.523 280.02 349.77 276.26 351.874C272.51 353.978 268.67 355.959 264.77 357.776C260.88 359.602 256.91 361.296 252.9 362.825C248.89 364.364 244.82 365.75 240.71 366.992C236.6 368.223 232.44 369.322 228.26 370.256C224.08 371.189 219.85 371.969 215.62 372.596C211.38 373.222 207.11 373.694 202.84 374.002C198.57 374.32 194.28 374.474 190 374.474C185.72 374.474 181.43 374.32 177.16 374.002C172.89 373.694 168.62 373.222 164.38 372.596C160.15 371.969 155.92 371.189 151.74 370.256C147.56 369.322 143.4 368.223 139.29 366.992C135.18 365.75 131.11 364.364 127.1 362.825C123.09 361.296 119.12 359.602 115.23 357.776C111.33 355.959 107.49 353.978 103.74 351.874C99.98 349.77 96.29 347.523 92.68 345.152C89.08 342.771 85.56 340.256 82.13 337.629C78.7 334.991 75.36 332.231 72.13 329.347C68.89 326.473 65.75 323.476 62.72 320.366C59.69 317.257 56.77 314.034 53.97 310.709C51.16 307.394 48.47 303.966 45.9 300.446C43.34 296.925 40.89 293.313 38.57 289.618C36.26 285.913 34.07 282.126 32.02 278.267C29.97 274.418 28.04 270.477 26.27 266.474C24.49 262.482 22.84 258.408 21.35 254.292C19.85 250.177 18.5 245.999 17.29 241.781C16.09 237.563 15.02 233.294 14.11 229.004C13.2 224.714 12.44 220.372 11.83 216.031C11.22 211.679 10.76 207.297 10.46 202.915C10.15 198.532 10 194.129 10 189.737C10 185.344 10.15 180.941 10.46 176.559C10.76 172.177 11.22 167.794 11.83 163.443C12.44 159.101 13.2 154.76 14.11 150.47C15.02 146.18 16.09 141.911 17.29 137.692C18.5 133.474 19.85 129.297 21.35 125.182C22.84 121.066 24.49 116.992 26.27 112.999C28.04 108.997 29.97 105.056 32.02 101.207C34.07 97.3479 36.26 93.5608 38.57 89.8558C40.89 86.1611 43.34 82.5484 45.9 79.0282C48.47 75.5079 51.16 72.08 53.97 68.765C56.77 65.4397 59.69 62.2171 62.72 59.1074C65.75 55.9976 68.89 53.0008 72.13 50.1271C75.36 47.2432 78.7 44.4824 82.13 41.8447C85.56 39.2174 89.08 36.7029 92.68 34.3218C96.29 31.9511 99.98 29.7034 103.74 27.5995C107.49 25.4955 111.33 23.5147 115.23 21.6982C119.12 19.8713 123.09 18.1779 127.1 16.6487C131.11 15.1092 135.18 13.7237 139.29 12.4818C143.4 11.2503 147.56 10.1521 151.74 9.21816C155.92 8.28421 160.15 7.50421 164.38 6.87816C168.62 6.25211 172.89 5.78 177.16 5.47211C181.43 5.15395 185.72 5 190 5C194.28 5 198.57 5.15395 202.84 5.47211C207.11 5.78 211.38 6.25211 215.62 6.87816C219.85 7.50421 224.08 8.28421 228.26 9.21816C232.44 10.1521 236.6 11.2503 240.71 12.4818C244.82 13.7237 248.89 15.1092 252.9 16.6487C256.91 18.1779 260.88 19.8713 264.77 21.6982C268.67 23.5147 272.51 25.4955 276.26 27.5995C280.02 29.7034 283.71 31.9511 287.32 34.3218C290.92 36.7029 294.44 39.2174 297.87 41.8447C301.3 44.4824 304.64 47.2432 307.87 50.1271C311.11 53.0008 314.25 55.9976 317.28 59.1074C320.31 62.2171 323.23 65.4397 326.03 68.765C328.84 72.08 331.53 75.5079 334.1 79.0282C336.66 82.5484 339.11 86.1611 341.43 89.8558C343.74 93.5608 345.93 97.3479 347.98 101.207C350.03 105.056 351.96 108.997 353.73 112.999C355.51 116.992 357.16 121.066 358.65 125.182C360.15 129.297 361.5 133.474 362.71 137.692C363.91 141.911 364.98 146.18 365.89 150.47C366.8 154.76 367.56 159.101 368.17 163.443C368.78 167.794 369.24 172.177 369.54 176.559C369.85 180.941 370 185.344 370 189.737Z" fill="#5ADBFF" stroke="#094074" stroke-width="4" stroke-linecap="round"/>
<path d="M280.668 145.537H254.871C253.345 138.116 250.675 131.598 246.861 125.98C243.116 120.363 238.539 115.647 233.13 111.833C227.79 107.95 221.861 105.037 215.342 103.095C208.824 101.154 202.028 100.183 194.954 100.183C182.055 100.183 170.37 103.442 159.899 109.961C149.496 116.48 141.209 126.084 135.037 138.775C128.935 151.466 125.883 167.034 125.883 185.481C125.883 203.928 128.935 219.496 135.037 232.187C141.209 244.878 149.496 254.483 159.899 261.001C170.37 267.52 182.055 270.779 194.954 270.779C202.028 270.779 208.824 269.809 215.342 267.867C221.861 265.925 227.79 263.047 233.13 259.233C238.539 255.349 243.116 250.599 246.861 244.982C250.675 239.295 253.345 232.777 254.871 225.426H280.668C278.727 236.313 275.19 246.057 270.058 254.656C264.926 263.255 258.546 270.571 250.918 276.605C243.29 282.569 234.725 287.111 225.225 290.232C215.793 293.352 205.703 294.913 194.954 294.913C176.785 294.913 160.627 290.474 146.48 281.598C132.333 272.721 121.202 260.1 113.088 243.734C104.975 227.367 100.918 207.95 100.918 185.481C100.918 163.012 104.975 143.595 113.088 127.229C121.202 110.862 132.333 98.2411 146.48 89.3645C160.627 80.4879 176.785 76.0496 194.954 76.0496C205.703 76.0496 215.793 77.6099 225.225 80.7306C234.725 83.8513 243.29 88.4283 250.918 94.4616C258.546 100.426 264.926 107.707 270.058 116.306C275.19 124.836 278.727 134.58 280.668 145.537Z" fill="#094074"/>
<path d="M343 51.7895C343 53.5753 342.85 55.3816 342.54 57.1366C342.24 58.8916 341.78 60.6466 341.19 62.3195C340.6 63.9924 339.85 65.6447 338.98 67.1842C338.11 68.7237 337.1 70.2118 335.98 71.5768C334.87 72.9418 333.61 74.235 332.28 75.3742C330.95 76.5237 329.5 77.5603 328 78.4532C326.5 79.3461 324.89 80.1158 323.26 80.7213C321.63 81.3268 319.92 81.799 318.21 82.1068C316.5 82.425 314.74 82.5789 313 82.5789C311.26 82.5789 309.5 82.425 307.79 82.1068C306.08 81.799 304.37 81.3268 302.74 80.7213C301.11 80.1158 299.5 79.3461 298 78.4532C296.5 77.5603 295.05 76.5237 293.72 75.3742C292.39 74.235 291.13 72.9418 290.02 71.5768C288.9 70.2118 287.89 68.7237 287.02 67.1842C286.15 65.6447 285.4 63.9924 284.81 62.3195C284.22 60.6466 283.76 58.8916 283.46 57.1366C283.15 55.3816 283 53.5753 283 51.7895C283 50.0037 283.15 48.1974 283.46 46.4424C283.76 44.6874 284.22 42.9324 284.81 41.2595C285.4 39.5866 286.15 37.9342 287.02 36.3947C287.89 34.8553 288.9 33.3671 290.02 32.0021C291.13 30.6371 292.39 29.3439 293.72 28.2047C295.05 27.0553 296.5 26.0187 298 25.1258C299.5 24.2329 301.11 23.4632 302.74 22.8576C304.37 22.2521 306.08 21.78 307.79 21.4721C309.5 21.1539 311.26 21 313 21C314.74 21 316.5 21.1539 318.21 21.4721C319.92 21.78 321.63 22.2521 323.26 22.8576C324.89 23.4632 326.5 24.2329 328 25.1258C329.5 26.0187 330.95 27.0553 332.28 28.2047C333.61 29.3439 334.87 30.6371 335.98 32.0021C337.1 33.3671 338.11 34.8553 338.98 36.3947C339.85 37.9342 340.6 39.5866 341.19 41.2595C341.78 42.9324 342.24 44.6874 342.54 46.4424C342.85 48.1974 342.92 50.8966 343 51.7895C343.08 52.6824 343.08 50.8966 343 51.7895Z" fill="#FE9000"/>
<path d="M343 51.7895C343 53.5753 342.85 55.3816 342.54 57.1366C342.24 58.8916 341.78 60.6466 341.19 62.3195C340.6 63.9924 339.85 65.6447 338.98 67.1842C338.11 68.7237 337.1 70.2118 335.98 71.5768C334.87 72.9418 333.61 74.235 332.28 75.3742C330.95 76.5237 329.5 77.5603 328 78.4532C326.5 79.3461 324.89 80.1158 323.26 80.7213C321.63 81.3268 319.92 81.7989 318.21 82.1068C316.5 82.425 314.74 82.5789 313 82.5789C311.26 82.5789 309.5 82.425 307.79 82.1068C306.08 81.7989 304.37 81.3268 302.74 80.7213C301.11 80.1158 299.5 79.3461 298 78.4532C296.5 77.5603 295.05 76.5237 293.72 75.3742C292.39 74.235 291.13 72.9418 290.02 71.5768C288.9 70.2118 287.89 68.7237 287.02 67.1842C286.15 65.6447 285.4 63.9924 284.81 62.3195C284.22 60.6466 283.76 58.8916 283.46 57.1366C283.15 55.3816 283 53.5753 283 51.7895C283 50.0037 283.15 48.1974 283.46 46.4424C283.76 44.6874 284.22 42.9324 284.81 41.2595C285.4 39.5866 286.15 37.9342 287.02 36.3947C287.89 34.8553 288.9 33.3671 290.02 32.0021C291.13 30.6371 292.39 29.3439 293.72 28.2047C295.05 27.0553 296.5 26.0187 298 25.1258C299.5 24.2329 301.11 23.4632 302.74 22.8576C304.37 22.2521 306.08 21.78 307.79 21.4721C309.5 21.1539 311.26 21 313 21C314.74 21 316.5 21.1539 318.21 21.4721C319.92 21.78 321.63 22.2521 323.26 22.8576C324.89 23.4632 326.5 24.2329 328 25.1258C329.5 26.0187 330.95 27.0553 332.28 28.2047C333.61 29.3439 334.87 30.6371 335.98 32.0021C337.1 33.3671 338.11 34.8553 338.98 36.3947C339.85 37.9342 340.6 39.5866 341.19 41.2595C341.78 42.9324 342.24 44.6874 342.54 46.4424C342.85 48.1974 342.92 50.8966 343 51.7895ZM343 51.7895C343.08 50.8966 343.08 52.6824 343 51.7895Z" stroke="#094074" stroke-width="4" stroke-linecap="round"/>
</g>
<defs>
<clipPath id="clip0_1_2">
<rect width="380" height="380" fill="white"/>
</clipPath>
</defs>
</svg>
